<svg xmlns="http://www.w3.org/2000/svg" viewBox="0 0 248.2 68" fill="none" role="img" aria-label="Discova">
  <title>Discova</title>
  <defs>
    <filter id="ag" x="-70%" y="-70%" width="240%" height="240%">
      <feGaussianBlur stdDeviation="2.2" result="b"/>
      <feMerge><feMergeNode in="b"/><feMergeNode in="SourceGraphic"/></feMerge>
    </filter>
  </defs>
  <g transform="translate(0,13.20) scale(0.8667)">
    <circle cx="24" cy="24" r="21.5" stroke="#2E2E3A" stroke-width="1.4"/>
    <circle cx="15" cy="15" r="1.1" fill="#1A1A24"/><circle cx="24" cy="15" r="1.1" fill="#1A1A24"/><circle cx="33" cy="15" r="1.1" fill="#1A1A24"/>
    <circle cx="15" cy="24" r="1.1" fill="#1A1A24"/><circle cx="33" cy="24" r="1.1" fill="#1A1A24"/>
    <circle cx="15" cy="33" r="1.1" fill="#1A1A24"/><circle cx="24" cy="33" r="1.1" fill="#1A1A24"/><circle cx="33" cy="33" r="1.1" fill="#1A1A24"/>
    <line x1="15" y1="33" x2="24" y2="13.5" stroke="#32324A" stroke-width="1.3" stroke-linecap="round"/>
    <line x1="33" y1="33" x2="24" y2="13.5" stroke="#32324A" stroke-width="1.3" stroke-linecap="round"/>
    <line x1="15" y1="33" x2="33" y2="33" stroke="#26263A" stroke-width="1.0" stroke-linecap="round"/>
    <circle cx="15" cy="33" r="3.0" fill="#242436" stroke="#383852" stroke-width="0.8"/>
    <circle cx="33" cy="33" r="3.0" fill="#242436" stroke="#383852" stroke-width="0.8"/>
    <circle cx="24" cy="13.5" r="5.8" fill="#E8C547" filter="url(#ag)"/>
    <circle cx="22.6" cy="12.1" r="1.8" fill="rgba(255,255,255,0.22)"/>
  </g>
  <g transform="translate(55.6,0)" fill="#F0ECE2">
    <path d="M2.86 50.596Q4.835999999999999 50.492 5.564 49.68599999999999Q6.292 48.879999999999995 6.369999999999999 47.449999999999996Q6.4479999999999995 46.019999999999996 6.4479999999999995 44.199999999999996V21.736Q6.4479999999999995 20.695999999999998 6.5 19.733999999999998Q6.552 18.772 6.604 17.991999999999997Q5.668 18.043999999999997 4.732 18.095999999999997Q3.796 18.147999999999996 2.86 18.199999999999996V15.911999999999999L15.132 15.86Q19.811999999999998 15.86 23.711999999999996 16.951999999999998Q27.612 18.043999999999997 30.445999999999998 20.305999999999997Q33.28 22.567999999999998 34.814 26.025999999999996Q36.348 29.483999999999998 36.348 34.164Q36.348 37.751999999999995 35.099999999999994 41.028Q33.852 44.304 31.355999999999998 46.826Q28.86 49.348 25.142 50.83Q21.424 52.312 16.535999999999998 52.312H2.86ZM10.972 46.175999999999995Q10.972 47.58 10.946 48.568Q10.92 49.556 10.815999999999999 50.232Q12.219999999999999 50.284 13.389999999999999 50.31Q14.559999999999999 50.336 15.366 50.336Q16.172 50.336 16.38 50.336Q19.759999999999998 50.336 22.49 49.087999999999994Q25.22 47.839999999999996 27.169999999999998 45.629999999999995Q29.119999999999997 43.42 30.186 40.43Q31.252 37.44 31.252 33.956Q31.252 29.016 29.458 25.402Q27.663999999999998 21.788 23.971999999999998 19.786Q20.279999999999998 17.784 14.559999999999999 17.784Q12.636 17.784 11.882 18.564Q11.128 19.344 11.05 20.747999999999998Q10.972 22.151999999999997 10.972 24.023999999999997Z M41.02799999999999 50.751999999999995Q42.63999999999999 50.751999999999995 43.263999999999996 49.946Q43.88799999999999 49.14 43.99199999999999 47.71Q44.096 46.28 44.096 44.408V32.552Q44.096 31.72 44.147999999999996 30.966Q44.199999999999996 30.212 44.303999999999995 29.171999999999997Q43.367999999999995 29.224 42.458 29.276Q41.547999999999995 29.328 40.611999999999995 29.38V27.195999999999998Q42.89999999999999 27.195999999999998 44.147999999999996 26.988Q45.395999999999994 26.779999999999998 46.04599999999999 26.467999999999996Q46.696 26.156 47.059999999999995 25.791999999999998H48.568V46.8Q48.568 47.839999999999996 48.541999999999994 48.646Q48.51599999999999 49.452 48.35999999999999 50.336Q49.19199999999999 50.284 49.99799999999999 50.257999999999996Q50.803999999999995 50.232 51.635999999999996 50.18V52.312H41.02799999999999ZM46.019999999999996 20.644Q44.92799999999999 20.644 44.09599999999999 19.759999999999998Q43.263999999999996 18.875999999999998 43.263999999999996 17.576Q43.263999999999996 16.275999999999996 44.12199999999999 15.365999999999996Q44.97999999999999 14.455999999999996 46.071999999999996 14.455999999999996Q47.267999999999994 14.455999999999996 48.074 15.365999999999996Q48.879999999999995 16.275999999999996 48.879999999999995 17.576Q48.879999999999995 18.875999999999998 48.02199999999999 19.759999999999998Q47.163999999999994 20.644 46.019999999999996 20.644Z M66.3 53.144Q63.699999999999996 53.144 61.672 52.44199999999999Q59.644 51.739999999999995 58.343999999999994 50.855999999999995L58.552 52.675999999999995H56.367999999999995L56.056 43.732H57.668Q57.772 45.864 58.864 47.554Q59.955999999999996 49.244 61.672 50.18Q63.388 51.116 65.36399999999999 51.116Q66.716 51.116 68.01599999999999 50.674Q69.316 50.232 70.2 49.322Q71.084 48.412 71.084 47.007999999999996Q71.084 45.552 70.226 44.59Q69.368 43.628 67.964 42.9Q66.56 42.172 64.948 41.548Q63.388 40.924 61.827999999999996 40.248Q60.267999999999994 39.571999999999996 58.94199999999999 38.635999999999996Q57.616 37.699999999999996 56.836 36.348Q56.056 34.995999999999995 56.056 33.019999999999996Q56.056 31.927999999999997 56.471999999999994 30.628Q56.888 29.328 57.876 28.158Q58.864 26.988 60.58 26.234Q62.29599999999999 25.48 64.948 25.48Q66.352 25.48 68.068 25.948Q69.78399999999999 26.416 71.396 27.715999999999998L71.292 25.74H73.476V34.84H71.812Q71.708 33.019999999999996 70.97999999999999 31.33Q70.252 29.639999999999997 68.84799999999998 28.522Q67.44399999999999 27.404 65.208 27.404Q62.815999999999995 27.404 61.464 28.6Q60.111999999999995 29.796 60.111999999999995 31.355999999999998Q60.111999999999995 32.968 61.126 34.034Q62.14 35.099999999999994 63.751999999999995 35.879999999999995Q65.36399999999999 36.66 67.184 37.388Q69.16 38.22 71.032 39.208Q72.904 40.196 74.1 41.678Q75.29599999999999 43.16 75.29599999999999 45.5Q75.29599999999999 48.099999999999994 73.97 49.815999999999995Q72.64399999999999 51.532 70.59 52.337999999999994Q68.536 53.144 66.3 53.144Z M92.404 53.144Q88.92 53.144 85.982 51.55799999999999Q83.044 49.971999999999994 81.30199999999999 46.982Q79.56 43.992 79.56 39.78Q79.56 37.076 80.548 34.528Q81.536 31.979999999999997 83.33 29.926Q85.124 27.872 87.62 26.676000000000002Q90.116 25.48 93.13199999999999 25.48Q96.044 25.48 98.202 26.363999999999997Q100.36 27.247999999999998 101.556 28.704Q102.752 30.16 102.752 31.875999999999998Q102.752 33.019999999999996 102.12799999999999 33.82599999999999Q101.50399999999999 34.632 100.30799999999999 34.632Q99.008 34.684 98.46199999999999 33.826Q97.916 32.968 97.916 32.292Q97.916 31.772 98.072 31.226Q98.228 30.68 98.696 30.212Q98.28 28.964 97.24 28.366Q96.19999999999999 27.767999999999997 95.082 27.586Q93.964 27.404 93.23599999999999 27.404Q89.7 27.404 87.28200000000001 30.238Q84.864 33.072 84.864 38.48Q84.864 41.964 85.982 44.668Q87.1 47.372 89.12799999999999 48.906Q91.15599999999999 50.44 93.80799999999999 50.44Q96.252 50.44 98.488 49.14Q100.72399999999999 47.839999999999996 101.972 45.967999999999996L103.324 47.007999999999996Q101.972 49.192 100.07399999999998 50.544Q98.17599999999999 51.896 96.17399999999999 52.519999999999996Q94.172 53.144 92.404 53.144Z M120.276 53.144Q116.636 53.144 113.672 51.45399999999999Q110.708 49.763999999999996 108.96600000000001 46.774Q107.224 43.784 107.224 39.936Q107.224 35.828 108.94 32.552Q110.656 29.276 113.62 27.378Q116.584 25.48 120.276 25.48Q123.916 25.48 126.88 27.222Q129.844 28.964 131.612 31.927999999999997Q133.38 34.891999999999996 133.38 38.688Q133.38 42.692 131.63799999999998 45.994Q129.896 49.296 126.93199999999999 51.22Q123.96799999999999 53.144 120.276 53.144ZM120.692 51.064Q123.448 51.064 125.06 49.504Q126.672 47.943999999999996 127.374 45.44799999999999Q128.076 42.952 128.076 40.196Q128.076 37.855999999999995 127.63399999999999 35.593999999999994Q127.192 33.331999999999994 126.256 31.485999999999997Q125.32 29.639999999999997 123.838 28.548Q122.356 27.456 120.276 27.456Q117.572 27.456 115.856 29.016Q114.14 30.575999999999997 113.334 33.071999999999996Q112.52799999999999 35.568 112.52799999999999 38.428Q112.52799999999999 41.652 113.41199999999999 44.538Q114.29599999999999 47.424 116.11599999999999 49.244Q117.93599999999999 51.064 120.692 51.064Z M147.68 52.467999999999996 140.244 35.516Q139.412 33.54 138.94400000000002 32.135999999999996Q138.476 30.732 138.29399999999998 29.796Q138.112 28.86 138.06 28.288L135.824 28.444V26.311999999999998H145.392V27.872Q143.832 27.872 143.39 28.677999999999997Q142.948 29.483999999999998 143.26 30.809999999999995Q143.572 32.135999999999996 144.196 33.644L148.2 42.796Q148.61599999999999 43.68 149.00599999999997 44.641999999999996Q149.396 45.604 149.76 46.644H149.812Q150.072 45.864 150.41 44.98Q150.748 44.096 151.008 43.263999999999996L155.168 31.875999999999998Q155.584 30.628 156.05200000000002 29.692Q156.52 28.756 156.728 28.288L153.4 28.444V26.311999999999998H161.61599999999999V27.872Q160.472 27.872 159.692 28.652Q158.912 29.432 158.21 30.991999999999997Q157.508 32.552 156.572 34.891999999999996L149.76 52.467999999999996Z M179.868 52.312Q179.712 51.428 179.66 50.751999999999995Q179.608 50.076 179.504 49.348Q177.736 51.116 175.682 52.129999999999995Q173.628 53.144 171.34 53.144Q167.38799999999998 53.144 165.464 51.349999999999994Q163.54 49.556 163.54 46.955999999999996Q163.54 44.564 165.022 42.822Q166.504 41.08 168.87 39.961999999999996Q171.236 38.843999999999994 174.01799999999997 38.297999999999995Q176.79999999999998 37.751999999999995 179.39999999999998 37.804V34.58Q179.39999999999998 32.76 179.08799999999997 31.147999999999996Q178.77599999999998 29.535999999999998 177.736 28.496Q176.696 27.456 174.408 27.404Q172.89999999999998 27.352 171.31399999999996 27.976Q169.72799999999998 28.599999999999998 169.0 30.107999999999997Q169.416 30.523999999999997 169.546 31.07Q169.676 31.616 169.676 32.084Q169.676 32.708 169.156 33.513999999999996Q168.636 34.31999999999999 167.33599999999998 34.268Q166.244 34.268 165.672 33.513999999999996Q165.1 32.76 165.1 31.72Q165.1 29.951999999999998 166.426 28.548Q167.75199999999998 27.144 170.09199999999998 26.311999999999998Q172.432 25.48 175.396 25.48Q179.76399999999998 25.48 181.844 27.793999999999997Q183.92399999999994 30.107999999999997 183.87199999999999 35.099999999999994Q183.87199999999999 37.024 183.87199999999999 38.974000000000004Q183.87199999999999 40.924 183.846 42.873999999999995Q183.82 44.824 183.82 46.8Q183.82 47.632 183.76799999999997 48.464Q183.71599999999998 49.296 183.612 50.336Q184.548 50.284 185.458 50.232Q186.368 50.18 187.304 50.128V52.312ZM179.39999999999998 39.571999999999996Q177.632 39.623999999999995 175.68200000000002 40.013999999999996Q173.732 40.403999999999996 172.094 41.184Q170.456 41.964 169.442 43.238Q168.428 44.512 168.48 46.332Q168.584 48.256 169.754 49.218Q170.92399999999998 50.18 172.536 50.18Q174.66799999999998 50.18 176.25399999999996 49.373999999999995Q177.83999999999997 48.568 179.39999999999998 47.111999999999995Q179.34799999999998 46.54 179.34799999999998 45.864Q179.34799999999998 45.187999999999995 179.34799999999998 44.46Q179.34799999999998 44.199999999999996 179.37399999999997 42.79599999999999Q179.39999999999998 41.391999999999996 179.39999999999998 39.571999999999996Z"/>
  </g>
  <circle cx="175.9" cy="8.0" r="2.8" fill="#E8C547"/>
</svg>